<?xml version="1.0" encoding="UTF-8" standalone="no"?>
<svg
   xmlns:dc="http://purl.org/dc/elements/1.1/"
   xmlns:cc="http://creativecommons.org/ns#"
   xmlns:rdf="http://www.w3.org/1999/02/22-rdf-syntax-ns#"
   xmlns:svg="http://www.w3.org/2000/svg"
   xmlns="http://www.w3.org/2000/svg"
   viewBox="0 0 246.00328 165.8288"
   height="165.8288"
   width="246.00328"
   xml:space="preserve"
   id="svg2"
   version="1.1"><metadata
     id="metadata8"><rdf:RDF><cc:Work
         rdf:about=""><dc:format>image/svg+xml</dc:format><dc:type
           rdf:resource="http://purl.org/dc/dcmitype/StillImage" /></cc:Work></rdf:RDF></metadata><defs
     id="defs6"><clipPath
       id="clipPath14"
       clipPathUnits="userSpaceOnUse"><path
         id="path12"
         d="M 0,0 H 595.2755 V 841.8898 H 0 Z" /></clipPath><clipPath
       id="clipPath24"
       clipPathUnits="userSpaceOnUse"><path
         id="path22"
         d="m 13,678.8898 h 261 v 151 H 13 Z" /></clipPath><clipPath
       id="clipPath34"
       clipPathUnits="userSpaceOnUse"><path
         id="path32"
         d="m 19,710.8898 h 116 v 97 H 19 Z" /></clipPath><clipPath
       id="clipPath48"
       clipPathUnits="userSpaceOnUse"><path
         id="path46"
         d="m 18,678.8898 h 107 v 50 H 18 Z" /></clipPath><clipPath
       id="clipPath62"
       clipPathUnits="userSpaceOnUse"><path
         id="path60"
         d="m 52,681.8898 h 181 v 33 H 52 Z" /></clipPath><clipPath
       id="clipPath76"
       clipPathUnits="userSpaceOnUse"><path
         id="path74"
         d="m 13,678.8898 h 261 v 151 H 13 Z" /></clipPath></defs><g
     clip-path="url(#clipPath14)"
     transform="matrix(1.3333333,0,0,-1.3333333,-54.375253,1055.7953)"
     id="g10"><g
       id="g16" /><g
       id="g18"><g
         clip-path="url(#clipPath24)"
         id="g20"><path
           id="path26"
           style="fill:#000000;fill-opacity:1;fill-rule:nonzero;stroke:none"
           d="m 51.4422,781.1161 h 51.9346 v -60.749 H 51.4422 Z" /></g></g><g
       id="g28"><g
         clip-path="url(#clipPath34)"
         id="g30"><g
           transform="translate(37.60803,561.8898)"
           id="g36"><text
             id="text40"
             style="font-variant:normal;font-weight:normal;font-size:96px;font-family:Haettenschweiler;-inkscape-font-specification:Haettenschweiler;writing-mode:lr-tb;fill:#ffffff;fill-opacity:1;fill-rule:nonzero;stroke:none"
             transform="matrix(1,0,0,-1,0,151)"><tspan
               id="tspan38"
               y="0"
               x="0 39.004799">PS</tspan></text>
</g></g></g><g
       id="g42"><g
         clip-path="url(#clipPath48)"
         id="g44"><g
           transform="translate(53.33764,539.8898)"
           id="g50"><text
             id="text54"
             style="font-variant:normal;font-weight:normal;font-size:36px;font-family:Haettenschweiler;-inkscape-font-specification:Haettenschweiler;writing-mode:lr-tb;fill:#000000;fill-opacity:1;fill-rule:nonzero;stroke:none"
             transform="matrix(1,0,0,-1,0,151)"><tspan
               id="tspan52"
               y="0"
               x="0 16.999201">PS</tspan></text>
</g></g></g><g
       id="g56"><g
         clip-path="url(#clipPath62)"
         id="g58"><g
           transform="translate(90.97035,540.8898)"
           id="g64"><text
             id="text68"
             style="font-variant:normal;font-weight:normal;font-size:20px;font-family:Crima;-inkscape-font-specification:Crima-Regular;writing-mode:lr-tb;fill:#1b619d;fill-opacity:1;fill-rule:nonzero;stroke:none"
             transform="matrix(1,0,0,-1,0,151)"><tspan
               id="tspan66"
               y="0"
               x="0 13 26 35 44 63 77 89">Software</tspan></text>
</g></g></g><g
       id="g70"><g
         clip-path="url(#clipPath76)"
         id="g72"><g
           transform="translate(51.72142,513.8898)"
           id="g78"><text
             id="text82"
             style="font-variant:normal;font-weight:normal;font-size:10px;font-family:Avenir;-inkscape-font-specification:Avenir-Book;writing-mode:lr-tb;fill:#000000;fill-opacity:1;fill-rule:nonzero;stroke:none"
             transform="matrix(1,0,0,-1,0,151)"><tspan
               id="tspan80"
               y="0"
               x="0 9 18 24 30 39 47 52 61 70 75 83 88 97 102 113 120 129 135 142 154 163 170 179 185 194 202 211 220 229 235">Votre logiciel sur mesure pour </tspan></text>
</g></g></g></g></svg>